<mxfile host="app.diagrams.net" modified="2020-11-24T13:25:03.413Z" agent="5.0 (Windows NT 10.0; Win64; x64) AppleWebKit/537.36 (KHTML, like Gecko) Chrome/86.0.4240.198 Safari/537.36" etag="1fzPyN_wQPgDKbU4EjtI" version="13.10.2" type="github">
  <diagram id="GkkWraDNgSba4sV_W3uy" name="Page-1">
    <mxGraphModel dx="2272" dy="828" grid="1" gridSize="10" guides="1" tooltips="1" connect="1" arrows="1" fold="1" page="1" pageScale="1" pageWidth="850" pageHeight="1100" math="0" shadow="0">
      <root>
        <mxCell id="0" />
        <mxCell id="1" parent="0" />
        <mxCell id="Ur5QU9xx6arJdu07V3gl-28" value="" style="rounded=0;whiteSpace=wrap;html=1;fillColor=none;" vertex="1" parent="1">
          <mxGeometry x="35" y="95" width="1485" height="795" as="geometry" />
        </mxCell>
        <mxCell id="Ur5QU9xx6arJdu07V3gl-25" style="edgeStyle=orthogonalEdgeStyle;curved=1;rounded=0;orthogonalLoop=1;jettySize=auto;html=1;entryX=0;entryY=0.5;entryDx=0;entryDy=0;" edge="1" parent="1" source="Ur5QU9xx6arJdu07V3gl-1" target="Ur5QU9xx6arJdu07V3gl-3">
          <mxGeometry relative="1" as="geometry" />
        </mxCell>
        <mxCell id="Ur5QU9xx6arJdu07V3gl-37" style="edgeStyle=orthogonalEdgeStyle;curved=1;rounded=0;orthogonalLoop=1;jettySize=auto;html=1;entryX=0;entryY=0.5;entryDx=0;entryDy=0;" edge="1" parent="1" source="Ur5QU9xx6arJdu07V3gl-1" target="Ur5QU9xx6arJdu07V3gl-8">
          <mxGeometry relative="1" as="geometry" />
        </mxCell>
        <mxCell id="Ur5QU9xx6arJdu07V3gl-38" style="edgeStyle=orthogonalEdgeStyle;curved=1;rounded=0;orthogonalLoop=1;jettySize=auto;html=1;exitX=0.5;exitY=0.5;exitDx=0;exitDy=0;exitPerimeter=0;entryX=0;entryY=0.5;entryDx=0;entryDy=0;" edge="1" parent="1" source="Ur5QU9xx6arJdu07V3gl-1" target="Ur5QU9xx6arJdu07V3gl-9">
          <mxGeometry relative="1" as="geometry" />
        </mxCell>
        <mxCell id="Ur5QU9xx6arJdu07V3gl-1" value="Customer" style="shape=umlActor;verticalLabelPosition=bottom;verticalAlign=top;html=1;outlineConnect=0;" vertex="1" parent="1">
          <mxGeometry x="-40" y="430" width="30" height="60" as="geometry" />
        </mxCell>
        <mxCell id="Ur5QU9xx6arJdu07V3gl-26" style="edgeStyle=orthogonalEdgeStyle;curved=1;rounded=0;orthogonalLoop=1;jettySize=auto;html=1;" edge="1" parent="1" source="Ur5QU9xx6arJdu07V3gl-3" target="Ur5QU9xx6arJdu07V3gl-13">
          <mxGeometry relative="1" as="geometry" />
        </mxCell>
        <mxCell id="Ur5QU9xx6arJdu07V3gl-27" style="edgeStyle=orthogonalEdgeStyle;curved=1;rounded=0;orthogonalLoop=1;jettySize=auto;html=1;entryX=0;entryY=0.5;entryDx=0;entryDy=0;" edge="1" parent="1" source="Ur5QU9xx6arJdu07V3gl-3" target="Ur5QU9xx6arJdu07V3gl-14">
          <mxGeometry relative="1" as="geometry" />
        </mxCell>
        <mxCell id="Ur5QU9xx6arJdu07V3gl-3" value="Create&lt;br&gt;Survey" style="ellipse;whiteSpace=wrap;html=1;fillColor=none;" vertex="1" parent="1">
          <mxGeometry x="140" y="150" width="120" height="80" as="geometry" />
        </mxCell>
        <mxCell id="Ur5QU9xx6arJdu07V3gl-23" style="edgeStyle=orthogonalEdgeStyle;curved=1;rounded=0;orthogonalLoop=1;jettySize=auto;html=1;dashed=1;" edge="1" parent="1" source="Ur5QU9xx6arJdu07V3gl-4" target="Ur5QU9xx6arJdu07V3gl-22">
          <mxGeometry relative="1" as="geometry" />
        </mxCell>
        <mxCell id="Ur5QU9xx6arJdu07V3gl-4" value="Store All Data" style="ellipse;whiteSpace=wrap;html=1;fillColor=none;" vertex="1" parent="1">
          <mxGeometry x="1020" y="160" width="120" height="80" as="geometry" />
        </mxCell>
        <mxCell id="Ur5QU9xx6arJdu07V3gl-6" value="Mobile App Survey&lt;br&gt;" style="text;html=1;align=center;verticalAlign=middle;resizable=0;points=[];autosize=1;" vertex="1" parent="1">
          <mxGeometry x="425" y="60" width="120" height="20" as="geometry" />
        </mxCell>
        <mxCell id="Ur5QU9xx6arJdu07V3gl-8" value="View Survey" style="ellipse;whiteSpace=wrap;html=1;fillColor=none;" vertex="1" parent="1">
          <mxGeometry x="140" y="420" width="120" height="80" as="geometry" />
        </mxCell>
        <mxCell id="Ur5QU9xx6arJdu07V3gl-51" style="edgeStyle=orthogonalEdgeStyle;curved=1;rounded=0;orthogonalLoop=1;jettySize=auto;html=1;" edge="1" parent="1" source="Ur5QU9xx6arJdu07V3gl-9" target="Ur5QU9xx6arJdu07V3gl-12">
          <mxGeometry relative="1" as="geometry" />
        </mxCell>
        <mxCell id="Ur5QU9xx6arJdu07V3gl-56" style="edgeStyle=orthogonalEdgeStyle;curved=1;rounded=0;orthogonalLoop=1;jettySize=auto;html=1;" edge="1" parent="1" source="Ur5QU9xx6arJdu07V3gl-9" target="Ur5QU9xx6arJdu07V3gl-10">
          <mxGeometry relative="1" as="geometry" />
        </mxCell>
        <mxCell id="Ur5QU9xx6arJdu07V3gl-9" value="Make Modifcations" style="ellipse;whiteSpace=wrap;html=1;fillColor=none;" vertex="1" parent="1">
          <mxGeometry x="140" y="650" width="120" height="80" as="geometry" />
        </mxCell>
        <mxCell id="Ur5QU9xx6arJdu07V3gl-58" style="edgeStyle=orthogonalEdgeStyle;curved=1;rounded=0;orthogonalLoop=1;jettySize=auto;html=1;entryX=0;entryY=0.5;entryDx=0;entryDy=0;" edge="1" parent="1" source="Ur5QU9xx6arJdu07V3gl-10" target="Ur5QU9xx6arJdu07V3gl-11">
          <mxGeometry relative="1" as="geometry">
            <Array as="points">
              <mxPoint x="477" y="630" />
              <mxPoint x="477" y="565" />
              <mxPoint x="510" y="565" />
            </Array>
          </mxGeometry>
        </mxCell>
        <mxCell id="Ur5QU9xx6arJdu07V3gl-10" value="Survey" style="ellipse;whiteSpace=wrap;html=1;fillColor=none;" vertex="1" parent="1">
          <mxGeometry x="330" y="600" width="120" height="80" as="geometry" />
        </mxCell>
        <mxCell id="Ur5QU9xx6arJdu07V3gl-41" value="&amp;lt;&amp;lt;include&amp;gt;&amp;gt;" style="edgeStyle=orthogonalEdgeStyle;curved=1;rounded=0;orthogonalLoop=1;jettySize=auto;html=1;dashed=1;" edge="1" parent="1" source="Ur5QU9xx6arJdu07V3gl-11" target="Ur5QU9xx6arJdu07V3gl-36">
          <mxGeometry relative="1" as="geometry" />
        </mxCell>
        <mxCell id="Ur5QU9xx6arJdu07V3gl-11" value="Search&lt;br&gt;For survey" style="ellipse;whiteSpace=wrap;html=1;fillColor=none;" vertex="1" parent="1">
          <mxGeometry x="510" y="490" width="120" height="80" as="geometry" />
        </mxCell>
        <mxCell id="Ur5QU9xx6arJdu07V3gl-54" style="edgeStyle=orthogonalEdgeStyle;curved=1;rounded=0;orthogonalLoop=1;jettySize=auto;html=1;" edge="1" parent="1" source="Ur5QU9xx6arJdu07V3gl-12" target="Ur5QU9xx6arJdu07V3gl-53">
          <mxGeometry relative="1" as="geometry">
            <Array as="points">
              <mxPoint x="390" y="840" />
            </Array>
          </mxGeometry>
        </mxCell>
        <mxCell id="Ur5QU9xx6arJdu07V3gl-12" value="SOR CODES" style="ellipse;whiteSpace=wrap;html=1;fillColor=none;" vertex="1" parent="1">
          <mxGeometry x="330" y="700" width="120" height="80" as="geometry" />
        </mxCell>
        <mxCell id="Ur5QU9xx6arJdu07V3gl-17" value="&amp;lt;&amp;lt;include&amp;gt;&amp;gt;" style="edgeStyle=orthogonalEdgeStyle;rounded=0;orthogonalLoop=1;jettySize=auto;html=1;dashed=1;" edge="1" parent="1" source="Ur5QU9xx6arJdu07V3gl-13" target="Ur5QU9xx6arJdu07V3gl-15">
          <mxGeometry relative="1" as="geometry" />
        </mxCell>
        <mxCell id="Ur5QU9xx6arJdu07V3gl-13" value="Request To Save&lt;br&gt;Survey" style="ellipse;whiteSpace=wrap;html=1;fillColor=none;" vertex="1" parent="1">
          <mxGeometry x="330" y="230" width="120" height="80" as="geometry" />
        </mxCell>
        <mxCell id="Ur5QU9xx6arJdu07V3gl-19" value="&amp;lt;&amp;lt;include&amp;gt;&amp;gt;" style="edgeStyle=orthogonalEdgeStyle;rounded=0;orthogonalLoop=1;jettySize=auto;html=1;dashed=1;" edge="1" parent="1" source="Ur5QU9xx6arJdu07V3gl-14" target="Ur5QU9xx6arJdu07V3gl-18">
          <mxGeometry relative="1" as="geometry" />
        </mxCell>
        <mxCell id="Ur5QU9xx6arJdu07V3gl-14" value="Cancel" style="ellipse;whiteSpace=wrap;html=1;fillColor=none;" vertex="1" parent="1">
          <mxGeometry x="330" y="111" width="120" height="80" as="geometry" />
        </mxCell>
        <mxCell id="Ur5QU9xx6arJdu07V3gl-21" style="edgeStyle=orthogonalEdgeStyle;curved=1;rounded=0;orthogonalLoop=1;jettySize=auto;html=1;dashed=1;" edge="1" parent="1" source="Ur5QU9xx6arJdu07V3gl-59" target="Ur5QU9xx6arJdu07V3gl-4">
          <mxGeometry relative="1" as="geometry" />
        </mxCell>
        <mxCell id="Ur5QU9xx6arJdu07V3gl-31" value="&amp;lt;&amp;lt;include&amp;gt;&amp;gt;" style="edgeLabel;html=1;align=center;verticalAlign=middle;resizable=0;points=[];" vertex="1" connectable="0" parent="Ur5QU9xx6arJdu07V3gl-21">
          <mxGeometry x="-0.2667" y="2" relative="1" as="geometry">
            <mxPoint x="1" y="21" as="offset" />
          </mxGeometry>
        </mxCell>
        <mxCell id="Ur5QU9xx6arJdu07V3gl-60" style="edgeStyle=orthogonalEdgeStyle;curved=1;rounded=0;orthogonalLoop=1;jettySize=auto;html=1;entryX=0.017;entryY=0.625;entryDx=0;entryDy=0;entryPerimeter=0;dashed=1;" edge="1" parent="1" source="Ur5QU9xx6arJdu07V3gl-15" target="Ur5QU9xx6arJdu07V3gl-59">
          <mxGeometry relative="1" as="geometry" />
        </mxCell>
        <mxCell id="Ur5QU9xx6arJdu07V3gl-61" value="&amp;lt;&amp;lt;include&amp;gt;&amp;gt;" style="edgeLabel;html=1;align=center;verticalAlign=middle;resizable=0;points=[];" vertex="1" connectable="0" parent="Ur5QU9xx6arJdu07V3gl-60">
          <mxGeometry x="-0.2907" y="16" relative="1" as="geometry">
            <mxPoint as="offset" />
          </mxGeometry>
        </mxCell>
        <mxCell id="Ur5QU9xx6arJdu07V3gl-15" value="Verify Essential Data&lt;br&gt;completed" style="ellipse;whiteSpace=wrap;html=1;fillColor=none;" vertex="1" parent="1">
          <mxGeometry x="550" y="230" width="120" height="80" as="geometry" />
        </mxCell>
        <mxCell id="Ur5QU9xx6arJdu07V3gl-20" style="edgeStyle=orthogonalEdgeStyle;rounded=0;orthogonalLoop=1;jettySize=auto;html=1;entryX=0.601;entryY=0.979;entryDx=0;entryDy=0;entryPerimeter=0;dashed=1;curved=1;" edge="1" parent="1" source="Ur5QU9xx6arJdu07V3gl-16" target="Ur5QU9xx6arJdu07V3gl-15">
          <mxGeometry relative="1" as="geometry" />
        </mxCell>
        <mxCell id="Ur5QU9xx6arJdu07V3gl-30" value="&amp;lt;&amp;lt;Extend&amp;gt;&amp;gt;" style="edgeLabel;html=1;align=center;verticalAlign=middle;resizable=0;points=[];" vertex="1" connectable="0" parent="Ur5QU9xx6arJdu07V3gl-20">
          <mxGeometry x="-0.1972" y="-9" relative="1" as="geometry">
            <mxPoint as="offset" />
          </mxGeometry>
        </mxCell>
        <mxCell id="Ur5QU9xx6arJdu07V3gl-16" value="&amp;lt;&amp;lt;include&amp;gt;&amp;gt;&lt;br&gt;Request user&lt;br&gt;fill required sections" style="ellipse;whiteSpace=wrap;html=1;fillColor=none;" vertex="1" parent="1">
          <mxGeometry x="850" y="255" width="120" height="80" as="geometry" />
        </mxCell>
        <mxCell id="Ur5QU9xx6arJdu07V3gl-18" value="Delete Data" style="ellipse;whiteSpace=wrap;html=1;fillColor=none;" vertex="1" parent="1">
          <mxGeometry x="550" y="111" width="120" height="80" as="geometry" />
        </mxCell>
        <mxCell id="Ur5QU9xx6arJdu07V3gl-22" value="Database" style="shape=cylinder3;whiteSpace=wrap;html=1;boundedLbl=1;backgroundOutline=1;size=15;fillColor=none;" vertex="1" parent="1">
          <mxGeometry x="1310" y="200" width="60" height="80" as="geometry" />
        </mxCell>
        <mxCell id="Ur5QU9xx6arJdu07V3gl-50" value="&amp;lt;&amp;lt;extend&amp;gt;&amp;gt;" style="edgeStyle=orthogonalEdgeStyle;curved=1;rounded=0;orthogonalLoop=1;jettySize=auto;html=1;dashed=1;" edge="1" parent="1" source="Ur5QU9xx6arJdu07V3gl-24" target="Ur5QU9xx6arJdu07V3gl-8">
          <mxGeometry relative="1" as="geometry">
            <Array as="points">
              <mxPoint x="295" y="490" />
              <mxPoint x="295" y="460" />
            </Array>
          </mxGeometry>
        </mxCell>
        <mxCell id="Ur5QU9xx6arJdu07V3gl-24" value="Display last 10 Survey" style="ellipse;whiteSpace=wrap;html=1;fillColor=none;" vertex="1" parent="1">
          <mxGeometry x="330" y="485" width="120" height="80" as="geometry" />
        </mxCell>
        <mxCell id="Ur5QU9xx6arJdu07V3gl-36" value="Verify Survey&lt;br&gt;Exist" style="ellipse;whiteSpace=wrap;html=1;fillColor=none;" vertex="1" parent="1">
          <mxGeometry x="570" y="350" width="120" height="80" as="geometry" />
        </mxCell>
        <mxCell id="Ur5QU9xx6arJdu07V3gl-40" style="edgeStyle=orthogonalEdgeStyle;curved=1;rounded=0;orthogonalLoop=1;jettySize=auto;html=1;entryX=1;entryY=0.5;entryDx=0;entryDy=0;dashed=1;" edge="1" parent="1" source="Ur5QU9xx6arJdu07V3gl-39" target="Ur5QU9xx6arJdu07V3gl-36">
          <mxGeometry relative="1" as="geometry">
            <Array as="points">
              <mxPoint x="723" y="630" />
              <mxPoint x="723" y="390" />
            </Array>
          </mxGeometry>
        </mxCell>
        <mxCell id="Ur5QU9xx6arJdu07V3gl-46" value="&amp;lt;&amp;lt;extend&amp;gt;&amp;gt;" style="edgeLabel;html=1;align=center;verticalAlign=middle;resizable=0;points=[];" vertex="1" connectable="0" parent="Ur5QU9xx6arJdu07V3gl-40">
          <mxGeometry x="-0.4901" y="-16" relative="1" as="geometry">
            <mxPoint x="1" y="1" as="offset" />
          </mxGeometry>
        </mxCell>
        <mxCell id="Ur5QU9xx6arJdu07V3gl-39" value="&amp;nbsp;Display &lt;br&gt;Survey PDF" style="ellipse;whiteSpace=wrap;html=1;fillColor=none;" vertex="1" parent="1">
          <mxGeometry x="850" y="585" width="120" height="80" as="geometry" />
        </mxCell>
        <mxCell id="Ur5QU9xx6arJdu07V3gl-44" style="edgeStyle=orthogonalEdgeStyle;curved=1;rounded=0;orthogonalLoop=1;jettySize=auto;html=1;dashed=1;" edge="1" parent="1" source="Ur5QU9xx6arJdu07V3gl-42" target="Ur5QU9xx6arJdu07V3gl-36">
          <mxGeometry relative="1" as="geometry">
            <Array as="points">
              <mxPoint x="770" y="530" />
              <mxPoint x="770" y="390" />
            </Array>
          </mxGeometry>
        </mxCell>
        <mxCell id="Ur5QU9xx6arJdu07V3gl-49" value="&amp;lt;&amp;lt;extend&amp;gt;&amp;gt;" style="edgeLabel;html=1;align=center;verticalAlign=middle;resizable=0;points=[];" vertex="1" connectable="0" parent="Ur5QU9xx6arJdu07V3gl-44">
          <mxGeometry x="-0.5686" y="-1" relative="1" as="geometry">
            <mxPoint x="-1" y="-15" as="offset" />
          </mxGeometry>
        </mxCell>
        <mxCell id="Ur5QU9xx6arJdu07V3gl-42" value="Display &lt;br&gt;Invalid input" style="ellipse;whiteSpace=wrap;html=1;fillColor=none;" vertex="1" parent="1">
          <mxGeometry x="850" y="485" width="120" height="80" as="geometry" />
        </mxCell>
        <mxCell id="Ur5QU9xx6arJdu07V3gl-47" style="edgeStyle=orthogonalEdgeStyle;curved=1;rounded=0;orthogonalLoop=1;jettySize=auto;html=1;entryX=1;entryY=0.5;entryDx=0;entryDy=0;dashed=1;" edge="1" parent="1" source="Ur5QU9xx6arJdu07V3gl-45" target="Ur5QU9xx6arJdu07V3gl-36">
          <mxGeometry relative="1" as="geometry">
            <Array as="points">
              <mxPoint x="750" y="390" />
              <mxPoint x="750" y="390" />
            </Array>
          </mxGeometry>
        </mxCell>
        <mxCell id="Ur5QU9xx6arJdu07V3gl-48" value="&amp;lt;&amp;lt;extend&amp;gt;&amp;gt;" style="edgeLabel;html=1;align=center;verticalAlign=middle;resizable=0;points=[];" vertex="1" connectable="0" parent="Ur5QU9xx6arJdu07V3gl-47">
          <mxGeometry x="-0.1886" relative="1" as="geometry">
            <mxPoint as="offset" />
          </mxGeometry>
        </mxCell>
        <mxCell id="Ur5QU9xx6arJdu07V3gl-45" value="Display survey Doesn&#39;exist" style="ellipse;whiteSpace=wrap;html=1;fillColor=none;" vertex="1" parent="1">
          <mxGeometry x="850" y="365" width="120" height="80" as="geometry" />
        </mxCell>
        <mxCell id="Ur5QU9xx6arJdu07V3gl-52" value="Verify &lt;br&gt;Request" style="ellipse;whiteSpace=wrap;html=1;fillColor=none;" vertex="1" parent="1">
          <mxGeometry x="670" y="810" width="120" height="80" as="geometry" />
        </mxCell>
        <mxCell id="Ur5QU9xx6arJdu07V3gl-53" value="Can&lt;br&gt;Save / Delete" style="ellipse;whiteSpace=wrap;html=1;fillColor=none;" vertex="1" parent="1">
          <mxGeometry x="490" y="750" width="120" height="80" as="geometry" />
        </mxCell>
        <mxCell id="Ur5QU9xx6arJdu07V3gl-57" value="Delete" style="ellipse;whiteSpace=wrap;html=1;fillColor=none;" vertex="1" parent="1">
          <mxGeometry x="670" y="690" width="120" height="80" as="geometry" />
        </mxCell>
        <mxCell id="Ur5QU9xx6arJdu07V3gl-59" value="Create PDF" style="ellipse;whiteSpace=wrap;html=1;fillColor=none;" vertex="1" parent="1">
          <mxGeometry x="760" y="111" width="120" height="80" as="geometry" />
        </mxCell>
      </root>
    </mxGraphModel>
  </diagram>
</mxfile>
